<svg xmlns="http://www.w3.org/2000/svg" width="40" height="40" viewBox="0 0 40 40">
  <!-- Sonic's body (blue, side view) -->
  <ellipse cx="20" cy="25" rx="14" ry="8" fill="#0066CC" stroke="#004499" stroke-width="1"/>
  
  <!-- Sonic's head (blue, side profile) -->
  <ellipse cx="22" cy="15" rx="12" ry="9" fill="#0066CC" stroke="#004499" stroke-width="1"/>
  
  <!-- Sonic's back spikes/quills (characteristic side profile) -->
  <path d="M 8 12 Q 4 8 6 16" fill="#0066CC" stroke="#004499" stroke-width="1"/>
  <path d="M 12 10 Q 8 6 10 14" fill="#0066CC" stroke="#004499" stroke-width="1"/>
  <path d="M 16 9 Q 12 4 14 12" fill="#0066CC" stroke="#004499" stroke-width="1"/>
  
  <!-- Sonic's pointed snout (tan, side view) -->
  <ellipse cx="32" cy="16" rx="5" ry="3" fill="#FFDDAA" stroke="#CC9966" stroke-width="1"/>
  
  <!-- Sonic's nose (black, on snout tip) -->
  <ellipse cx="35" cy="15" rx="1" ry="0.8" fill="#000"/>
  
  <!-- Sonic's eye (single large eye, side view) -->
  <ellipse cx="26" cy="12" rx="4" ry="5" fill="#FFF" stroke="#000" stroke-width="1"/>
  
  <!-- Sonic's pupil -->
  <ellipse cx="28" cy="12" rx="2" ry="3" fill="#000"/>
  
  <!-- Eye highlight -->
  <ellipse cx="27" cy="10" rx="0.8" ry="1.2" fill="#FFF"/>
  
  <!-- Sonic's mouth (small smile) -->
  <path d="M 30 18 Q 32 20 34 18" stroke="#000" stroke-width="1" fill="none" stroke-linecap="round"/>
  
  <!-- Sonic's front arm/glove (white, reaching forward) -->
  <ellipse cx="30" cy="22" rx="3" ry="2" fill="#FFF" stroke="#CCC" stroke-width="1"/>
  
  <!-- Sonic's back arm (partially visible) -->
  <ellipse cx="12" cy="24" rx="2" ry="1.5" fill="#FFF" stroke="#CCC" stroke-width="1"/>
  
  <!-- Sonic's front leg/shoe (red, running position) -->
  <ellipse cx="28" cy="33" rx="5" ry="4" fill="#CC0000" stroke="#990000" stroke-width="1"/>
  
  <!-- Sonic's back leg/shoe (red, running position) -->
  <ellipse cx="14" cy="34" rx="4" ry="3" fill="#CC0000" stroke="#990000" stroke-width="1"/>
  
  <!-- Front shoe stripe and buckle -->
  <ellipse cx="28" cy="32" rx="4" ry="1.5" fill="#FFF"/>
  <rect x="26" y="30" width="4" height="1" fill="#FFD700" stroke="#CC9900" stroke-width="0.5"/>
  
  <!-- Back shoe stripe and buckle -->
  <ellipse cx="14" cy="33" rx="3" ry="1" fill="#FFF"/>
  <rect x="12" y="32" width="3" height="0.8" fill="#FFD700" stroke="#CC9900" stroke-width="0.5"/>
  
  <!-- Motion lines (speed effect) -->
  <line x1="2" y1="15" x2="6" y2="15" stroke="#87CEEB" stroke-width="1" opacity="0.6"/>
  <line x1="1" y1="20" x2="7" y2="20" stroke="#87CEEB" stroke-width="1" opacity="0.6"/>
  <line x1="3" y1="25" x2="8" y2="25" stroke="#87CEEB" stroke-width="1" opacity="0.6"/>
</svg>