<svg xmlns="http://www.w3.org/2000/svg" width="60" height="80" viewBox="0 0 60 80">
  <!-- Cup base -->
  <ellipse cx="30" cy="70" rx="18" ry="6" fill="#8B4513" stroke="#654321" stroke-width="2"/>
  
  <!-- Cup stem -->
  <rect x="25" y="55" width="10" height="15" fill="#DAA520" stroke="#B8860B" stroke-width="1"/>
  
  <!-- Main cup body -->
  <path d="M 15 55 Q 12 45 12 35 Q 12 25 15 20 L 45 20 Q 48 25 48 35 Q 48 45 45 55 Z" 
        fill="#FFD700" stroke="#DAA520" stroke-width="2"/>
  
  <!-- Cup handles -->
  <path d="M 12 35 Q 8 35 8 40 Q 8 45 12 45" 
        fill="none" stroke="#DAA520" stroke-width="3" stroke-linecap="round"/>
  <path d="M 48 35 Q 52 35 52 40 Q 52 45 48 45" 
        fill="none" stroke="#DAA520" stroke-width="3" stroke-linecap="round"/>
  
  <!-- Cup rim -->
  <ellipse cx="30" cy="20" rx="16" ry="3" fill="#FFFF99" stroke="#DAA520" stroke-width="1"/>
  
  <!-- Decorative bands -->
  <ellipse cx="30" cy="30" rx="14" ry="2" fill="#FFFF99" opacity="0.7"/>
  <ellipse cx="30" cy="40" rx="13" ry="1.5" fill="#FFFF99" opacity="0.7"/>
  
  <!-- Winner's star on cup -->
  <path d="M 30 25 L 32 31 L 38 31 L 33 35 L 35 41 L 30 37 L 25 41 L 27 35 L 22 31 L 28 31 Z" 
        fill="#FF6B35" stroke="#CC5500" stroke-width="1"/>
  
  <!-- Shine effect -->
  <ellipse cx="25" cy="30" rx="3" ry="8" fill="#FFFFFF" opacity="0.3"/>
  
  <!-- Sparkles around cup -->
  <circle cx="12" cy="15" r="1" fill="#FFFF99"/>
  <circle cx="48" cy="18" r="1.5" fill="#FFFF99"/>
  <circle cx="50" cy="25" r="1" fill="#FFFF99"/>
  <circle cx="8" cy="25" r="1.2" fill="#FFFF99"/>
  <circle cx="15" cy="12" r="0.8" fill="#FFFF99"/>
  <circle cx="45" cy="10" r="1" fill="#FFFF99"/>
  
  <!-- Small sparkle crosses -->
  <g stroke="#FFFF99" stroke-width="1" opacity="0.8">
    <line x1="10" y1="8" x2="10" y2="12"/>
    <line x1="8" y1="10" x2="12" y2="10"/>
    
    <line x1="50" y1="12" x2="50" y2="16"/>
    <line x1="48" y1="14" x2="52" y2="14"/>
    
    <line x1="55" y1="30" x2="55" y2="34"/>
    <line x1="53" y1="32" x2="57" y2="32"/>
  </g>
</svg>